{
  "accessors": [
    {
      "bufferView": 2,
      "componentType": 5126,
      "count": 774,
      "max": [
        38.14399337768555,
        0.003847852349281311,
        38.14399337768555
      ],
      "min": [
        -38.14399337768555,
        -4.7810258865356445,
        -38.14399337768555
      ],
      "type": "VEC3"
    },
    {
      "bufferView": 2,
      "byteOffset": 9288,
      "componentType": 5126,
      "count": 774,
      "max": [
        0.9810299873352051,
        1.0,
        0.9810299873352051
      ],
      "min": [
        -0.9810299873352051,
        -1.0,
        -0.9810299873352051
      ],
      "type": "VEC3"
    },
    {
      "bufferView": 3,
      "componentType": 5126,
      "count": 774,
      "max": [
        0.19385604560375214,
        0.9810359477996826,
        0.8798445463180542,
        1.0
      ],
      "min": [
        -0.999009370803833,
        -0.9805996417999268,
        -0.3690580129623413,
        1.0
      ],
      "type": "VEC4"
    },
    {
      "bufferView": 1,
      "componentType": 5126,
      "count": 774,
      "max": [
        0.9761205911636353,
        0.9920550584793091
      ],
      "min": [
        0.010514434427022934,
        0.011670775711536407
      ],
      "type": "VEC2"
    },
    {
      "bufferView": 0,
      "componentType": 5125,
      "count": 3840,
      "type": "SCALAR"
    },
    {
      "bufferView": 2,
      "byteOffset": 18576,
      "componentType": 5126,
      "count": 1740,
      "max": [
        30.69462776184082,
        44.992210388183594,
        30.69462776184082
      ],
      "min": [
        -30.69462776184082,
        0.03672530874609947,
        -30.69462776184082
      ],
      "type": "VEC3"
    },
    {
      "bufferView": 2,
      "byteOffset": 39456,
      "componentType": 5126,
      "count": 1740,
      "max": [
        1.0,
        0.9218834042549133,
        1.0
      ],
      "min": [
        -1.0,
        -1.0,
        -1.0
      ],
      "type": "VEC3"
    },
    {
      "bufferView": 3,
      "byteOffset": 12384,
      "componentType": 5126,
      "count": 1740,
      "max": [
        0.976962149143219,
        1.0,
        0.9785993695259094,
        1.0
      ],
      "min": [
        -0.9802342057228088,
        -0.999994695186615,
        -0.9797993302345276,
        1.0
      ],
      "type": "VEC4"
    },
    {
      "bufferView": 1,
      "byteOffset": 6192,
      "componentType": 5126,
      "count": 1740,
      "max": [
        0.8978488445281982,
        0.9923685193061829
      ],
      "min": [
        0.5788099765777588,
        0.7556235194206238
      ],
      "type": "VEC2"
    },
    {
      "bufferView": 0,
      "byteOffset": 15360,
      "componentType": 5125,
      "count": 9288,
      "type": "SCALAR"
    },
    {
      "bufferView": 2,
      "byteOffset": 60336,
      "componentType": 5126,
      "count": 815,
      "max": [
        20.463693618774414,
        31.763120651245117,
        20.463706970214844
      ],
      "min": [
        -20.463712692260742,
        -0.07836272567510605,
        -20.463706970214844
      ],
      "type": "VEC3"
    },
    {
      "bufferView": 2,
      "byteOffset": 70116,
      "componentType": 5126,
      "count": 815,
      "max": [
        0.9974008798599243,
        1.0,
        0.9974008798599243
      ],
      "min": [
        -0.9974008798599243,
        -1.0,
        -0.9974008202552795
      ],
      "type": "VEC3"
    },
    {
      "bufferView": 3,
      "byteOffset": 40224,
      "componentType": 5126,
      "count": 815,
      "max": [
        0.9977262616157532,
        0.9999943375587463,
        0.9996605515480042,
        1.0
      ],
      "min": [
        -0.9987848997116089,
        -0.9962691068649292,
        -0.9976075291633606,
        1.0
      ],
      "type": "VEC4"
    },
    {
      "bufferView": 1,
      "byteOffset": 20112,
      "componentType": 5126,
      "count": 815,
      "max": [
        0.8924314379692078,
        0.7548321485519409
      ],
      "min": [
        0.4231720566749573,
        0.009473748505115509
      ],
      "type": "VEC2"
    },
    {
      "bufferView": 0,
      "byteOffset": 52512,
      "componentType": 5125,
      "count": 3648,
      "type": "SCALAR"
    },
    {
      "bufferView": 2,
      "byteOffset": 79896,
      "componentType": 5126,
      "count": 815,
      "max": [
        20.463693618774414,
        31.763120651245117,
        20.463706970214844
      ],
      "min": [
        -20.463712692260742,
        -0.07836272567510605,
        -20.463706970214844
      ],
      "type": "VEC3"
    },
    {
      "bufferView": 2,
      "byteOffset": 89676,
      "componentType": 5126,
      "count": 815,
      "max": [
        0.9974008798599243,
        1.0,
        0.9974008798599243
      ],
      "min": [
        -0.9974008798599243,
        -1.0,
        -0.9974008202552795
      ],
      "type": "VEC3"
    },
    {
      "bufferView": 3,
      "byteOffset": 53264,
      "componentType": 5126,
      "count": 815,
      "max": [
        0.9977262616157532,
        0.9999943375587463,
        0.9996605515480042,
        1.0
      ],
      "min": [
        -0.9987848997116089,
        -0.9962691068649292,
        -0.9976075291633606,
        1.0
      ],
      "type": "VEC4"
    },
    {
      "bufferView": 1,
      "byteOffset": 26632,
      "componentType": 5126,
      "count": 815,
      "max": [
        0.8924314379692078,
        0.7548321485519409
      ],
      "min": [
        0.4231720566749573,
        0.009473748505115509
      ],
      "type": "VEC2"
    },
    {
      "bufferView": 0,
      "byteOffset": 67104,
      "componentType": 5125,
      "count": 3648,
      "type": "SCALAR"
    },
    {
      "bufferView": 2,
      "byteOffset": 99456,
      "componentType": 5126,
      "count": 815,
      "max": [
        20.463693618774414,
        31.763120651245117,
        20.463706970214844
      ],
      "min": [
        -20.463712692260742,
        -0.07836272567510605,
        -20.463706970214844
      ],
      "type": "VEC3"
    },
    {
      "bufferView": 2,
      "byteOffset": 109236,
      "componentType": 5126,
      "count": 815,
      "max": [
        0.9974008798599243,
        1.0,
        0.9974008798599243
      ],
      "min": [
        -0.9974008798599243,
        -1.0,
        -0.9974008202552795
      ],
      "type": "VEC3"
    },
    {
      "bufferView": 3,
      "byteOffset": 66304,
      "componentType": 5126,
      "count": 815,
      "max": [
        0.9977262616157532,
        0.9999943375587463,
        0.9996605515480042,
        1.0
      ],
      "min": [
        -0.9987848997116089,
        -0.9962691068649292,
        -0.9976075291633606,
        1.0
      ],
      "type": "VEC4"
    },
    {
      "bufferView": 1,
      "byteOffset": 33152,
      "componentType": 5126,
      "count": 815,
      "max": [
        0.8924314379692078,
        0.7548321485519409
      ],
      "min": [
        0.4231720566749573,
        0.009473748505115509
      ],
      "type": "VEC2"
    },
    {
      "bufferView": 0,
      "byteOffset": 81696,
      "componentType": 5125,
      "count": 3648,
      "type": "SCALAR"
    },
    {
      "bufferView": 2,
      "byteOffset": 119016,
      "componentType": 5126,
      "count": 815,
      "max": [
        20.463693618774414,
        31.763120651245117,
        20.463706970214844
      ],
      "min": [
        -20.463712692260742,
        -0.07836272567510605,
        -20.463706970214844
      ],
      "type": "VEC3"
    },
    {
      "bufferView": 2,
      "byteOffset": 128796,
      "componentType": 5126,
      "count": 815,
      "max": [
        0.9974008798599243,
        1.0,
        0.9974008798599243
      ],
      "min": [
        -0.9974008798599243,
        -1.0,
        -0.9974008202552795
      ],
      "type": "VEC3"
    },
    {
      "bufferView": 3,
      "byteOffset": 79344,
      "componentType": 5126,
      "count": 815,
      "max": [
        0.9977262616157532,
        0.9999943375587463,
        0.9996605515480042,
        1.0
      ],
      "min": [
        -0.9987848997116089,
        -0.9962691068649292,
        -0.9976075291633606,
        1.0
      ],
      "type": "VEC4"
    },
    {
      "bufferView": 1,
      "byteOffset": 39672,
      "componentType": 5126,
      "count": 815,
      "max": [
        0.8924314379692078,
        0.7548321485519409
      ],
      "min": [
        0.4231720566749573,
        0.009473748505115509
      ],
      "type": "VEC2"
    },
    {
      "bufferView": 0,
      "byteOffset": 96288,
      "componentType": 5125,
      "count": 3648,
      "type": "SCALAR"
    }
  ],
  "asset": {
    "extras": {
      "author": "ferofluid (https://sketchfab.com/ferofluid)",
      "license": "CC-BY-4.0 (http://creativecommons.org/licenses/by/4.0/)",
      "source": "https://sketchfab.com/3d-models/green-egg-coffe-table-e8358dae6a8441b7b9357ee9aa9cbd2b",
      "title": "Green Egg Coffe Table"
    },
    "generator": "Sketchfab-12.64.0",
    "version": "2.0"
  },
  "bufferViews": [
    {
      "buffer": 0,
      "byteLength": 110880,
      "name": "floatBufferViews",
      "target": 34963
    },
    {
      "buffer": 0,
      "byteLength": 46192,
      "byteOffset": 110880,
      "byteStride": 8,
      "name": "floatBufferViews",
      "target": 34962
    },
    {
      "buffer": 0,
      "byteLength": 138576,
      "byteOffset": 157072,
      "byteStride": 12,
      "name": "floatBufferViews",
      "target": 34962
    },
    {
      "buffer": 0,
      "byteLength": 92384,
      "byteOffset": 295648,
      "byteStride": 16,
      "name": "floatBufferViews",
      "target": 34962
    }
  ],
  "buffers": [
    {
      "byteLength": 388032,
      "uri": "scene.bin"
    }
  ],
  "images": [
    {
      "uri": "textures/Set1_baseColor.jpeg"
    },
    {
      "uri": "textures/Set1_metallicRoughness.png"
    },
    {
      "uri": "textures/Set1_normal.png"
    }
  ],
  "materials": [
    {
      "doubleSided": true,
      "name": "Set1",
      "normalTexture": {
        "index": 2,
        "scale": 0.6738183765182207
      },
      "pbrMetallicRoughness": {
        "baseColorTexture": {
          "index": 0
        },
        "metallicRoughnessTexture": {
          "index": 1
        },
        "roughnessFactor": 0.6612569038111605
      }
    }
  ],
  "meshes": [
    {
      "name": "Circle.004_Set1_0",
      "primitives": [
        {
          "attributes": {
            "NORMAL": 1,
            "POSITION": 0,
            "TANGENT": 2,
            "TEXCOORD_0": 3
          },
          "indices": 4,
          "material": 0,
          "mode": 4
        }
      ]
    },
    {
      "name": "Circle.005_Set1_0",
      "primitives": [
        {
          "attributes": {
            "NORMAL": 6,
            "POSITION": 5,
            "TANGENT": 7,
            "TEXCOORD_0": 8
          },
          "indices": 9,
          "material": 0,
          "mode": 4
        }
      ]
    },
    {
      "name": "Sphere.005_Set1_0",
      "primitives": [
        {
          "attributes": {
            "NORMAL": 11,
            "POSITION": 10,
            "TANGENT": 12,
            "TEXCOORD_0": 13
          },
          "indices": 14,
          "material": 0,
          "mode": 4
        }
      ]
    },
    {
      "name": "Sphere.002_Set1_0",
      "primitives": [
        {
          "attributes": {
            "NORMAL": 16,
            "POSITION": 15,
            "TANGENT": 17,
            "TEXCOORD_0": 18
          },
          "indices": 19,
          "material": 0,
          "mode": 4
        }
      ]
    },
    {
      "name": "Sphere.004_Set1_0",
      "primitives": [
        {
          "attributes": {
            "NORMAL": 21,
            "POSITION": 20,
            "TANGENT": 22,
            "TEXCOORD_0": 23
          },
          "indices": 24,
          "material": 0,
          "mode": 4
        }
      ]
    },
    {
      "name": "Sphere.006_Set1_0",
      "primitives": [
        {
          "attributes": {
            "NORMAL": 26,
            "POSITION": 25,
            "TANGENT": 27,
            "TEXCOORD_0": 28
          },
          "indices": 29,
          "material": 0,
          "mode": 4
        }
      ]
    }
  ],
  "nodes": [
    {
      "children": [
        1
      ],
      "matrix": [
        0.01637672819197178,
        0.0,
        0.0,
        0.0,
        0.0,
        3.636364141350996e-18,
        -0.01637672819197178,
        0.0,
        0.0,
        0.01637672819197178,
        3.636364141350996e-18,
        0.0,
        0.0,
        0.0,
        0.0,
        1.0
      ],
      "name": "Sketchfab_model"
    },
    {
      "children": [
        2
      ],
      "matrix": [
        1.0,
        0.0,
        0.0,
        0.0,
        0.0,
        0.0,
        1.0,
        0.0,
        0.0,
        -1.0,
        0.0,
        0.0,
        0.0,
        0.0,
        0.0,
        1.0
      ],
      "name": "4be4d67aef3a412fbf3f9619afd491b2.fbx"
    },
    {
      "children": [
        3,
        5,
        7,
        9,
        11,
        13
      ],
      "name": "RootNode"
    },
    {
      "children": [
        4
      ],
      "matrix": [
        1.0,
        0.0,
        0.0,
        0.0,
        0.0,
        1.0,
        0.0,
        0.0,
        0.0,
        0.0,
        1.0,
        0.0,
        0.0,
        49.75875473022461,
        0.0,
        1.0
      ],
      "name": "Circle.004"
    },
    {
      "mesh": 0,
      "name": "Circle.004_Set1_0"
    },
    {
      "children": [
        6
      ],
      "matrix": [
        7.549789959870878e-08,
        0.0,
        -0.9999999999999971,
        0.0,
        0.0,
        1.0,
        0.0,
        0.0,
        0.9999999999999971,
        0.0,
        7.549789959870878e-08,
        0.0,
        0.0,
        0.0,
        0.0,
        1.0
      ],
      "name": "Circle.005"
    },
    {
      "mesh": 1,
      "name": "Circle.005_Set1_0"
    },
    {
      "children": [
        8
      ],
      "matrix": [
        1.0,
        0.0,
        0.0,
        0.0,
        0.0,
        1.0,
        0.0,
        0.0,
        0.0,
        0.0,
        1.0,
        0.0,
        29.763286590576172,
        0.0,
        -30.94875717163086,
        1.0
      ],
      "name": "Sphere.005"
    },
    {
      "mesh": 2,
      "name": "Sphere.005_Set1_0"
    },
    {
      "children": [
        10
      ],
      "matrix": [
        -0.22644645526794727,
        2.7731692662215576e-17,
        0.9740236151637094,
        0.0,
        2.417481701751524e-16,
        1.0,
        2.7731692662215576e-17,
        0.0,
        -0.9740236151637094,
        2.417481701751524e-16,
        -0.22644645526794727,
        0.0,
        -23.04881477355957,
        0.0,
        -23.446550369262695,
        1.0
      ],
      "name": "Sphere.002"
    },
    {
      "mesh": 3,
      "name": "Sphere.002_Set1_0"
    },
    {
      "children": [
        12
      ],
      "matrix": [
        0.5852039743482422,
        0.0,
        0.8108860519195875,
        0.0,
        0.0,
        1.0,
        0.0,
        0.0,
        -0.8108860519195875,
        0.0,
        0.5852039743482422,
        0.0,
        -34.21434783935547,
        0.0,
        39.20917510986328,
        1.0
      ],
      "name": "Sphere.004"
    },
    {
      "mesh": 4,
      "name": "Sphere.004_Set1_0"
    },
    {
      "children": [
        14
      ],
      "matrix": [
        0.22448835730638225,
        0.0,
        0.974476709944674,
        0.0,
        0.0,
        1.0,
        0.0,
        0.0,
        -0.974476709944674,
        0.0,
        0.22448835730638225,
        0.0,
        35.61335754394531,
        0.0,
        57.8968505859375,
        1.0
      ],
      "name": "Sphere.006"
    },
    {
      "mesh": 5,
      "name": "Sphere.006_Set1_0"
    }
  ],
  "samplers": [
    {
      "magFilter": 9729,
      "minFilter": 9987,
      "wrapS": 10497,
      "wrapT": 10497
    }
  ],
  "scene": 0,
  "scenes": [
    {
      "name": "Sketchfab_Scene",
      "nodes": [
        0
      ]
    }
  ],
  "textures": [
    {
      "sampler": 0,
      "source": 0
    },
    {
      "sampler": 0,
      "source": 1
    },
    {
      "sampler": 0,
      "source": 2
    }
  ]
}
