{
  "accessors": [
    {
      "bufferView": 2,
      "componentType": 5126,
      "count": 65532,
      "max": [
        1.0011417865753174,
        0.7956833243370056,
        1.0011417865753174
      ],
      "min": [
        -1.0011417865753174,
        -2.114624261856079,
        -1.0011417865753174
      ],
      "type": "VEC3"
    },
    {
      "bufferView": 2,
      "byteOffset": 786384,
      "componentType": 5126,
      "count": 65532,
      "max": [
        0.9992961883544922,
        0.9999985694885254,
        0.9992972016334534
      ],
      "min": [
        -0.999296247959137,
        -0.9985011219978333,
        -0.9992971420288086
      ],
      "type": "VEC3"
    },
    {
      "bufferView": 1,
      "componentType": 5126,
      "count": 65532,
      "max": [
        0.7291747331619263,
        1.0
      ],
      "min": [
        0.0,
        0.08320832252502441
      ],
      "type": "VEC2"
    },
    {
      "bufferView": 0,
      "componentType": 5125,
      "count": 98298,
      "type": "SCALAR"
    },
    {
      "bufferView": 2,
      "byteOffset": 1572768,
      "componentType": 5126,
      "count": 26628,
      "max": [
        0.9738149046897888,
        0.7956833243370056,
        0.9738150238990784
      ],
      "min": [
        -0.9738150238990784,
        -2.113405466079712,
        -0.993706226348877
      ],
      "type": "VEC3"
    },
    {
      "bufferView": 2,
      "byteOffset": 1892304,
      "componentType": 5126,
      "count": 26628,
      "max": [
        0.9959431290626526,
        0.999972939491272,
        0.9960606098175049
      ],
      "min": [
        -0.995943009853363,
        -0.9985021352767944,
        -0.9959430694580078
      ],
      "type": "VEC3"
    },
    {
      "bufferView": 1,
      "byteOffset": 524256,
      "componentType": 5126,
      "count": 26628,
      "max": [
        0.7391390800476074,
        1.0
      ],
      "min": [
        0.0,
        -0.06645393371582031
      ],
      "type": "VEC2"
    },
    {
      "bufferView": 0,
      "byteOffset": 393192,
      "componentType": 5125,
      "count": 39942,
      "type": "SCALAR"
    },
    {
      "bufferView": 2,
      "byteOffset": 2211840,
      "componentType": 5126,
      "count": 18432,
      "max": [
        0.9042547941207886,
        0.30407842993736267,
        0.9042547941207886
      ],
      "min": [
        -0.9042547941207886,
        -1.5652726888656616,
        -0.9042547941207886
      ],
      "type": "VEC3"
    },
    {
      "bufferView": 2,
      "byteOffset": 2433024,
      "componentType": 5126,
      "count": 18432,
      "max": [
        0.9962465167045593,
        0.9961661100387573,
        0.9962465167045593
      ],
      "min": [
        -0.9962465167045593,
        -0.9962387681007385,
        -0.9962465167045593
      ],
      "type": "VEC3"
    },
    {
      "bufferView": 3,
      "componentType": 5126,
      "count": 18432,
      "max": [
        0.9999858140945435,
        0.31468719244003296,
        0.9998738169670105,
        -1.0
      ],
      "min": [
        -0.9999162554740906,
        -0.24687008559703827,
        -0.9999852776527405,
        -1.0
      ],
      "type": "VEC4"
    },
    {
      "bufferView": 1,
      "byteOffset": 737280,
      "componentType": 5126,
      "count": 18432,
      "max": [
        3.3885929584503174,
        3.679845094680786
      ],
      "min": [
        -1.938563585281372,
        -0.29134488105773926
      ],
      "type": "VEC2"
    },
    {
      "bufferView": 1,
      "byteOffset": 884736,
      "componentType": 5126,
      "count": 18432,
      "max": [
        3.3885929584503174,
        3.679845094680786
      ],
      "min": [
        -1.938563585281372,
        -0.29134488105773926
      ],
      "type": "VEC2"
    },
    {
      "bufferView": 0,
      "byteOffset": 552960,
      "componentType": 5125,
      "count": 27648,
      "type": "SCALAR"
    },
    {
      "bufferView": 2,
      "byteOffset": 2654208,
      "componentType": 5126,
      "count": 512,
      "max": [
        1.0395467281341553,
        1.1231045722961426,
        1.0395467281341553
      ],
      "min": [
        -1.0395467281341553,
        0.6678802967071533,
        -1.0395467281341553
      ],
      "type": "VEC3"
    },
    {
      "bufferView": 2,
      "byteOffset": 2660352,
      "componentType": 5126,
      "count": 512,
      "max": [
        1.0,
        1.0,
        1.0
      ],
      "min": [
        -1.0,
        0.0,
        -1.0
      ],
      "type": "VEC3"
    },
    {
      "bufferView": 1,
      "byteOffset": 1032192,
      "componentType": 5126,
      "count": 512,
      "max": [
        0.0,
        1.0
      ],
      "min": [
        0.0,
        1.0
      ],
      "type": "VEC2"
    },
    {
      "bufferView": 0,
      "byteOffset": 663552,
      "componentType": 5125,
      "count": 2202,
      "type": "SCALAR"
    }
  ],
  "asset": {
    "extras": {
      "author": "abdulimustapha032 (https://sketchfab.com/ades3D)",
      "license": "CC-BY-4.0 (http://creativecommons.org/licenses/by/4.0/)",
      "source": "https://sketchfab.com/3d-models/coffe-cup-5757869a5bf24a1690a1a3b92a2134e9",
      "title": "Coffe Cup"
    },
    "generator": "Sketchfab-15.13.0",
    "version": "2.0"
  },
  "bufferViews": [
    {
      "buffer": 0,
      "byteLength": 672360,
      "name": "floatBufferViews",
      "target": 34963
    },
    {
      "buffer": 0,
      "byteLength": 1036288,
      "byteOffset": 672360,
      "byteStride": 8,
      "name": "floatBufferViews",
      "target": 34962
    },
    {
      "buffer": 0,
      "byteLength": 2666496,
      "byteOffset": 1708648,
      "byteStride": 12,
      "name": "floatBufferViews",
      "target": 34962
    },
    {
      "buffer": 0,
      "byteLength": 294912,
      "byteOffset": 4375144,
      "byteStride": 16,
      "name": "floatBufferViews",
      "target": 34962
    }
  ],
  "buffers": [
    {
      "byteLength": 4670056,
      "uri": "scene.bin"
    }
  ],
  "extensionsUsed": [
    "KHR_materials_clearcoat",
    "KHR_materials_specular"
  ],
  "images": [
    {
      "uri": "textures/PAPER2_baseColor.png"
    }
  ],
  "materials": [
    {
      "doubleSided": true,
      "extensions": {
        "KHR_materials_clearcoat": {
          "clearcoatFactor": 1.0,
          "clearcoatRoughnessFactor": 0.163636
        },
        "KHR_materials_specular": {
          "specularColorFactor": [
            1.0,
            1.0,
            1.0
          ],
          "specularFactor": 1.0
        }
      },
      "name": "BLACK_PLASTIC",
      "pbrMetallicRoughness": {
        "metallicFactor": 0.0,
        "roughnessFactor": 0.302273
      }
    },
    {
      "doubleSided": true,
      "name": "PAPER2",
      "normalTexture": {
        "index": 0
      },
      "pbrMetallicRoughness": {
        "baseColorTexture": {
          "index": 0
        },
        "metallicFactor": 0.0,
        "roughnessFactor": 0.26376144687246095
      }
    },
    {
      "doubleSided": true,
      "extensions": {
        "KHR_materials_clearcoat": {
          "clearcoatFactor": 1.0,
          "clearcoatRoughnessFactor": 0.163636
        },
        "KHR_materials_specular": {
          "specularColorFactor": [
            1.0,
            1.0,
            1.0
          ],
          "specularFactor": 1.0
        }
      },
      "name": "BLACK_PLASTIC.001",
      "pbrMetallicRoughness": {
        "baseColorFactor": [
          0.0105471,
          0.0105471,
          0.0105471,
          1.0
        ],
        "metallicFactor": 0.0,
        "roughnessFactor": 0.302273
      }
    }
  ],
  "meshes": [
    {
      "name": "Object_0",
      "primitives": [
        {
          "attributes": {
            "NORMAL": 1,
            "POSITION": 0,
            "TEXCOORD_0": 2
          },
          "indices": 3,
          "material": 0,
          "mode": 4
        }
      ]
    },
    {
      "name": "Object_1",
      "primitives": [
        {
          "attributes": {
            "NORMAL": 5,
            "POSITION": 4,
            "TEXCOORD_0": 6
          },
          "indices": 7,
          "material": 0,
          "mode": 4
        }
      ]
    },
    {
      "name": "Object_2",
      "primitives": [
        {
          "attributes": {
            "NORMAL": 9,
            "POSITION": 8,
            "TANGENT": 10,
            "TEXCOORD_0": 11,
            "TEXCOORD_1": 12
          },
          "indices": 13,
          "material": 1,
          "mode": 4
        }
      ]
    },
    {
      "name": "Object_3",
      "primitives": [
        {
          "attributes": {
            "NORMAL": 15,
            "POSITION": 14,
            "TEXCOORD_0": 16
          },
          "indices": 17,
          "material": 2,
          "mode": 4
        }
      ]
    }
  ],
  "nodes": [
    {
      "children": [
        1
      ],
      "matrix": [
        1.0,
        0.0,
        0.0,
        0.0,
        0.0,
        -0.43891406059265115,
        -0.8985290527343751,
        0.0,
        0.0,
        0.8985290527343751,
        -0.43891406059265115,
        0.0,
        0.0,
        0.0,
        0.0,
        1.0
      ],
      "name": "Sketchfab_model"
    },
    {
      "children": [
        2
      ],
      "name": "root"
    },
    {
      "children": [
        3
      ],
      "matrix": [
        1.0,
        0.0,
        0.0,
        0.0,
        0.0,
        2.220446049250313e-16,
        1.0,
        0.0,
        0.0,
        -1.0,
        2.220446049250313e-16,
        0.0,
        0.0,
        0.0,
        0.0,
        1.0
      ],
      "name": "GLTF_SceneRootNode"
    },
    {
      "children": [
        4,
        7,
        9
      ],
      "matrix": [
        1.2481999397277832,
        0.0,
        0.0,
        0.0,
        0.0,
        1.676600694656372,
        0.0,
        0.0,
        0.0,
        0.0,
        1.228360891342163,
        0.0,
        0.0,
        1.681556224822998,
        0.0,
        1.0
      ],
      "name": "Empty_4"
    },
    {
      "children": [
        5,
        6
      ],
      "matrix": [
        0.8011536598205566,
        0.0,
        0.0,
        0.0,
        0.0,
        0.5964449048042297,
        0.0,
        0.0,
        0.0,
        0.0,
        0.8140930533409119,
        0.0,
        0.0,
        0.27317821979522705,
        0.0,
        1.0
      ],
      "name": "Circle_0"
    },
    {
      "mesh": 0,
      "name": "Object_5"
    },
    {
      "mesh": 1,
      "name": "Object_6"
    },
    {
      "children": [
        8
      ],
      "matrix": [
        0.8011536598205566,
        0.0,
        0.0,
        0.0,
        0.0,
        0.5964449048042297,
        0.0,
        0.0,
        0.0,
        0.0,
        0.8140930533409119,
        0.0,
        0.0,
        0.27317821979522705,
        0.0,
        1.0
      ],
      "name": "Circle.002_1"
    },
    {
      "mesh": 2,
      "name": "Object_8"
    },
    {
      "children": [
        10
      ],
      "matrix": [
        0.8011536598205566,
        0.0,
        0.0,
        0.0,
        0.0,
        0.0,
        0.8140930533409119,
        0.0,
        0.0,
        -0.5964449048042297,
        0.0,
        0.0,
        0.0,
        0.8858752250671387,
        0.0,
        1.0
      ],
      "name": "Empty.001_3"
    },
    {
      "children": [
        11
      ],
      "matrix": [
        1.0,
        0.0,
        0.0,
        0.0,
        -0.0,
        0.0,
        -1.0,
        0.0,
        0.0,
        1.0,
        0.0,
        0.0,
        0.0,
        0.0,
        1.0272481441497803,
        1.0
      ],
      "name": "Circle.001_2"
    },
    {
      "mesh": 3,
      "name": "Object_11"
    }
  ],
  "samplers": [
    {
      "magFilter": 9729,
      "minFilter": 9987,
      "wrapS": 10497,
      "wrapT": 10497
    }
  ],
  "scene": 0,
  "scenes": [
    {
      "name": "Sketchfab_Scene",
      "nodes": [
        0
      ]
    }
  ],
  "textures": [
    {
      "sampler": 0,
      "source": 0
    }
  ]
}
